<svg version="1.2" xmlns="http://www.w3.org/2000/svg" viewBox="0 0 846 705" width="1030" height="730">
	<title>code-svg</title>
	<style>
		.s0 { fill: #feb8b8 } 
		.s1 { fill: #2f2e41 } 
		.s2 { fill: #f0f0f0 } 
		.s3 { opacity: .1;fill: #000000 } 
		.s4 { fill: #e6e6e6 } 
		.s5 { fill: #ffffff } 
		.s6 { fill: #6c63ff } 
	</style>
	<g id="f1503154-f50a-4680-8aa4-587be41cac87">
		<path id="a9e5a31c-10e6-4175-9779-4994367672f7-2662" class="s0" d="m703.6 664.8l-1.5 19.5-29.8-9.8 12.2-14.6z"/>
		<path id="f499a4aa-6a35-40fc-8432-e4c7ab26d048-2663" class="s0" d="m811.9 658.4l-1.4 19.1-16.6 2.4-9.8-9.3 11.2-18z"/>
		<path id="fb70bf31-eafd-4d8a-8310-5130d8d104e1-2664" class="s1" d="m824.1 415.4c0 0 13.2 15.6-3.4 39.5-16.6 23.9-36.6 47.3-36.6 47.3l-37.1 70.3c0 0-19 68.8-23.4 70.8-4.4 1.9-6.8-5.9-4.4 2.4 2.4 8.3 1 7.8-1 8.3-1.9 0.5-7.3-0.5-5.3 3 1.9 3.4 3.4 3.4-0.5 3.4-3.9 0-5.4-2.5-5.4 1 0 3.4-3.4 11.2-3.4 11.2 0 0-23.9-6.9-24.9-9.8-1-2.9 6.3-4.4 4.9-7.3-1.5-2.9-2-2.9-2-7.3 0-4.4 2.9-5.4 2.9-5.4 0 0 2.5-1 1.5-2.9-1-2-4.9-1 0-3.4 4.9-2.5 24.9-77.2 24.9-77.2 0 0 0-37.1 6.4-49.3 6.3-12.2 1.4-99 16.6-100 15.1-1 90.2 5.4 90.2 5.4z"/>
		<path id="a89455c2-275d-4b70-b13c-192fbe474176-2665" class="s1" d="m819.3 443.2l-3 75.6c0 0 14.7 73.2 9.8 95.7-4.9 22.4-1.5 19.5-4.4 23.4-2.9 3.9-5.4 2-2.9 5.4 2.4 3.4 3.9 4.4 0 8.3-3.9 3.9-5.9 13.2-5.9 13.2l-24.9-2.5c0 0 6.4-11.2 3.9-13.6-2.4-2.5-8.8 1.4-3.9-3.9 4.9-5.4 7.8-3 4.9-5.4-2.9-2.4-7.3-1.5-3.4-5.4 3.9-3.9 8.3-3.9 4.4-5.3-3.9-1.5-8.3 0-6.4-3 2-2.9 4.4-6.3 4.4-6.3l-5.8-44.4c0 0-6.9-14.7-4.9-21 1.9-6.4-8.3-58.6-8.3-58.6z"/>
		<path id="a3024be5-ad86-493a-9bfb-258ab58160a1-2666" class="s1" d="m808.5 668.2c0 0 4.9-4.9 6.4-2 1.4 3 12.2 29.3 5.8 31.3-6.3 1.9-15.6 3.9-20.5 2.4-4.8-1.4-15.1-8.3-27.3-8.3-12.2 0-22.5-5.4-22.5-7.3 0-2-1.9-13.7 7.4-13.7 9.2 0 26.3-10.7 26.3-10.7 0 0 3.9-7.8 5.9-7.3 1.9 0.5 0.5 16.1 0.5 16.1 0 0 11.2 10.7 18-0.5z"/>
		<path id="a57c92ce-496a-44de-934b-3ddd78679762-2667" class="s1" d="m700.2 674.5c0 0 4.4-10.7 8.8-8.3 4.3 2.5 1.4 32.7 1.4 32.7 0 0-3.9 6.4-15.1 4.9-11.2-1.5-41-4.9-47.8-3.4-6.9 1.5-25.4-6.8-20.5-18.1 0 0 2.4-6.3 14.1-5.8 11.7 0.5 33.2-13.7 33.2-13.7 0 0 3.4-9.8 4.4-8.8 1 1 1.9 18.1 1.9 18.1 0 0 12.7 8.3 19.6 2.4z"/>
		<circle id="fa315d33-3eeb-4d45-ab88-aeb0e9694c5a" class="s0" cx="764.1" cy="196.2" r="28.3"/>
		<path id="fbae87ba-2986-46ef-9932-134b7e0cae24-2668" class="s0" d="m786.1 198.1c0 0 15.1 30.3 20.5 33.2 5.3 3-36.6 21-36.6 21 0 0-6.9-29.7-15.2-36.1-8.3-6.3 31.3-18.1 31.3-18.1z"/>
		<path id="fc15680c-e415-4000-ac02-b1f296562473-2669" class="s0" d="m742.6 445.6l-1.9 18.6c0 0-21-7.4-14.2-21z"/>
		<path id="ae3770ab-4aa4-41b9-9f4d-4c69df699916-2670" class="s2" d="m734.3 386.1l4.4-21c0 0-3.9-22 0-28.3 3.9-6.4 2-76.7 13.7-81.1 0 0 9.2-4.8 18-9.5 7.7-4 15-7.8 15.7-8 1.3-0.5 51.2 19.2 56.2 49.8q0.1 0.8 0.2 1.6 0.1 0.8 0.2 1.6 0 0.7 0 1.5 0 0.8 0 1.6c-1.5 34.2-10.3 56.6-10.3 56.6l3 47.9-9.8 10.2 1 11.2c0 0-77.6 13.2-92.3-2.4-14.6-15.6 0-31.7 0-31.7z"/>
		<path id="b41fb511-fd5e-48e5-b733-0d9230f6b6d5-2671" class="s3" d="m781.6 262.8c0 0 13.7 41 10.8 68.9-2.9 27.8-34.7 107.3-34.7 107.3l-10.7 5.9v13.7l-7.6-20.5 20.8-43.4c0 0-25.9-149.9 21.4-131.9z"/>
		<path id="efbdbf49-3b58-4bc5-8391-5fbab31acdf7-2672" class="s3" d="m770.4 246.2c7.7-4 15-7.8 15.7-8 1.3-0.5 51.2 19.2 56.2 49.8-2.7 4.3-7.3 5.1-15.4-2.8-22.4-22-43.9-42.5-58.1-34.7z"/>
		<path id="a2828270-d54b-4ede-bb2b-8639f55947f0-2673" class="s2" d="m768.8 246.8l5.9-16.1c0 0 40-19.1 66.4 0l4.4 27.3c0 0 3.9 45.4-18.6 23.4-22.4-21.9-43.9-42.4-58.1-34.6z"/>
		<path id="f68da632-d878-40c3-a103-67cfc5c970db-2674" class="s2" d="m780.2 256.2c0 0 13.7 41 10.8 68.9-3 27.8-34.7 107.3-34.7 107.3l-10.7 5.9v13.7l-22.5-6.4 4.9-16.1c0 0-7.8-9.8-2.4-12.7 5.3-2.9 4.3-19 4.3-19 0 0 3-159.6 50.3-141.6z"/>
		<path id="f57115f6-7f5b-4177-880b-f5eff1305e5b-2675" class="s1" d="m789.3 208c-0.4-2.1-0.4-4.5-1.4-6.5-1.6-2.9-5.2-4.2-8.5-4.5-4.3-0.3-8.6 0.4-12.9 0.1-4.2-0.3-8.8-1.9-10.9-5.6-0.9-1.5-1.3-3.2-2.4-4.5-2.4-2.7-6.6-2.3-10-1.1-3.3 1.1-6.9 2.8-10.3 1.9-2.9-8.1 0.7-17.4 6.8-23.4 6.2-6 14.5-9.3 22.7-11.7 10.9-3.1 23.2-5 33.2 0.3 14.5 7.7 19.6 28.2 18.3 43.4-0.5 5.8-1.4 12.3-6 16.2-6.8 5.7-16.5 5.2-18.6-4.6z"/>
		<path id="e1abf0e4-070b-4c82-8a12-ebedd4e3db02" class="s4" d="m0.3 0.3h611.4v391.7h-611.4z"/>
		<path id="ace8bea0-82e8-49b8-a50c-1e1cb532084f" class="s5" d="m19.7 49.5h576.5v319.3h-576.5z"/>
		<path id="b540f353-e277-4512-bc56-a133cea2858b" class="s6" d="m0 0h611.5v26h-611.5z"/>
		<circle id="b2b285b5-c1c3-4b12-9710-2898c7239781" class="s5" cx="19.3" cy="13.3" r="4.8"/>
		<circle id="a5a428bb-42a2-4f57-9e6c-9979c01a2490" class="s5" cx="37.6" cy="13.3" r="4.8"/>
		<circle id="a9929a25-14ce-4464-bac9-4165f1e3fae6" class="s5" cx="55.9" cy="13.3" r="4.8"/>
		<path id="b4a2d72b-abc3-4d2f-a2b8-a2aff6897b26-2676" class="s6" d="m129.4 103l-29 29.1 28.8 28.9-8.6 8.5-38.1-37.6 38.1-37.7z"/>
		<path id="b5120d89-6cbe-4bfa-9a1b-cf9b07deff91-2677" class="s6" d="m151.9 94.2l38.1 37.7-38.1 37.6-8.6-8.5 28.8-28.9-29.1-29.1z"/>
		<path id="a31271bd-8e2f-469b-8cee-8b6db3f92f99-2678" class="s4" d="m541.4 103.7c3.1 0 5.7 1.8 5.7 4 0 2.2-2.6 4-5.7 4h-266.2c-3.1 0-5.7-1.8-5.7-4 0-2.2 2.6-4 5.7-4z"/>
		<path id="bf577952-0fd5-43e0-be6b-ea1966b51a93-2679" fill-rule="evenodd" class="s4" d="m538.8 323.1h-447.9c-4.6 0-8.3-2.6-8.3-5.9v-79c0-3.2 3.7-5.9 8.3-5.9h447.9c4.5 0 8.2 2.7 8.3 5.9v79c0 3.3-3.8 5.9-8.3 5.9zm-447.9-88.4c-2.7 0-4.9 1.6-5 3.5v79c0 2 2.3 3.6 5 3.6h447.9c2.7 0 4.9-1.6 4.9-3.6v-79c0-1.9-2.2-3.5-4.9-3.5z"/>
		<circle id="f7f4957b-eaa8-456b-bf02-bacf7de3ef80" class="s4" cx="137" cy="277.7" r="20"/>
		<path id="fb0f055d-da6e-47f2-bb6d-7ff26d7b746a-2680" class="s6" d="m382.4 261.7c1.1 0 2.1 0.4 2.8 1.1 0.8 0.8 1.2 1.8 1.2 2.9 0 1-0.4 2.1-1.2 2.8-0.7 0.8-1.7 1.2-2.8 1.2h-188.9c-1 0-2-0.4-2.8-1.2-0.7-0.7-1.2-1.8-1.2-2.8 0-1.1 0.5-2.1 1.2-2.9 0.8-0.7 1.8-1.1 2.9-1.1z"/>
		<path id="bfcde504-8c45-4d21-843b-87b1f7e22ce0-2681" class="s6" d="m274.8 285.7c1.1 0 2.1 0.4 2.9 1.2 0.7 0.7 1.1 1.8 1.1 2.8 0 1.1-0.4 2.1-1.1 2.9-0.8 0.7-1.8 1.1-2.9 1.1h-81.3c-1 0-2-0.4-2.8-1.2-0.7-0.7-1.2-1.7-1.2-2.8 0-1.1 0.5-2.1 1.2-2.8 0.8-0.8 1.8-1.2 2.9-1.2z"/>
		<path id="a66699ea-75f1-4575-b6d5-52b0b1f8e30c-2682" class="s4" d="m447.7 127.7c1 0.1 2 0.5 2.7 1.3 0.6 0.7 1 1.7 1 2.7 0 1-0.4 2-1 2.7-0.7 0.7-1.7 1.2-2.7 1.3h-174.4c-1.1-0.1-2-0.6-2.7-1.3-0.7-0.7-1-1.7-1-2.7 0-1 0.3-2 1-2.7 0.7-0.8 1.6-1.2 2.7-1.3z"/>
		<path id="bbc4ca7b-25d4-4c7e-b3d4-0411f69bd48f-2683" class="s4" d="m503.1 151.7c2.7 0 4.8 1.8 4.8 4 0 2.2-2.1 4-4.8 4h-228.7c-2.7 0-4.9-1.8-4.9-4 0-2.2 2.2-4 4.9-4z"/>
	</g>
</svg>