<svg version="1.2" xmlns="http://www.w3.org/2000/svg" viewBox="0 0 880 632" width="1030" height="730">
	<title>shop-svg</title>
	<style>
		.s0 { fill: #e6e6e6 } 
		.s1 { fill: #ffffff } 
		.s2 { fill: #6c63ff } 
		.s3 { fill: #3f3d56 } 
		.s4 { fill: #2f2e41 } 
		.s5 { fill: #ffb6b6 } 
		.s6 { fill: #ffb8b8 } 
		.s7 { fill: #cacaca } 
	</style>
	<path id="b93b1ef9-49b5-4354-905b-d9dddde45a10" class="s0" d="m0.3 0.4h644.7v412.9h-644.7z"/>
	<path id="ef7485f9-8ecd-46d9-949e-abdd8aa9e360" class="s1" d="m18.7 52.2h607.9v336.6h-607.9z"/>
	<path id="b4c2a7ec-beab-40bc-b587-23a202562f78" class="s2" d="m0 0h644.7v27.4h-644.7z"/>
	<circle id="bd6d3ebf-cb6f-4fcb-b7cd-ad5a287d3324" class="s1" cx="20.4" cy="14" r="5.1"/>
	<circle id="efb1158e-7a7d-4adb-9063-fc7dc50c76d5" class="s1" cx="39.6" cy="14" r="5.1"/>
	<circle id="b51f9e19-f36b-4f29-afd5-008bb0fc20dd" class="s1" cx="58.9" cy="14" r="5.1"/>
	<path id="b636d421-4358-445b-b124-1d058e78c733" class="s0" d="m93.5 79.8h118.9v129h-118.9z"/>
	<path id="ab9c902d-64a9-4a2b-a9ec-6dc7022c80f6" class="s0" d="m263.2 79.8h118.9v129h-118.9z"/>
	<path id="f4a232af-026e-479b-8040-5c62e5965d9e" class="s0" d="m432.9 79.8h118.9v129h-118.9z"/>
	<path id="ada16aa4-f84d-4851-87ee-a2852d96226a" class="s0" d="m93.5 232.2h118.9v129h-118.9z"/>
	<path id="ebfcbe07-3b81-4d69-a4f5-6a8318d20e8d" class="s0" d="m263.2 232.2h118.9v129h-118.9z"/>
	<path id="ead16b6d-d132-49a9-a42f-1f570e523a46" class="s0" d="m432.9 232.2h118.9v129h-118.9z"/>
	<path id="ab8ff6e3-f37e-4992-8347-ee905fdba816-2939" class="s1" d="m291.9 265.3l21.8-8.6 2.5 43c0 0 4.5 13.1 3 18.2 0 0 1 8.6-1.5 9.1-2.5 0.5-9.6 1.5-10.1 1-0.5-0.5-0.5-2.1-0.5-2.1 0 0-5.1 3.6-5.6 7.6 0 0-21.2 6.6-21.7 0.5-0.5-6 10.6-11.1 10.6-11.1l8.6-13.1z"/>
	<path id="e647835b-1773-4993-9de9-376235a5ef39-2940" class="s1" d="m337.9 265.3l21.7-8.6 2.5 43c0 0 4.6 13.1 3.1 18.2 0 0 1 8.6-1.5 9.1-2.6 0.5-9.6 1.5-10.1 1-0.5-0.5-0.5-2.1-0.5-2.1 0 0-5.1 3.6-5.6 7.6 0 0-21.2 6.6-21.7 0.5-0.5-6 10.6-11.1 10.6-11.1l8.6-13.1z"/>
	<path id="ee50e840-b8e9-4cc0-9b2e-64e12816c6e5-2941" class="s3" d="m340 99.5c0 0-4.6 12.9 0.8 18.8l-4.5 15.3c0 0 15.9 47.6 11.3 54.3 0 0-16.9 8.5-50.8-3l13.8-53.4-2-22.5 2.7-10.6 6.1-0.6c0 0-3.6 13.6 3 15.7 6.7 2.1 13.2-15.4 13.2-15.4z"/>
	<path id="b668efb4-5504-4326-941b-9be143c4d030-2942" class="s1" d="m141.5 149.5l4.8-21.2 9.8-31.3 21.7 0.9c3.7 17.9 0.7 55.7-3.1 92.7l-5.8 1.1-8.8-43-27.8 36.6-5.9-2.4z"/>
	<path id="b699d661-049e-451c-8a7e-64343ac1c335-2943" class="s1" d="m496 97.6l2.6 7.6 13 85.7-14.6-0.4-7.2-66.1-2.9 14.2 3.5 52.5-11.9-0.6c0 0-5-72.9-5.4-77.3-0.4-4.5 7.6-15.6 7.6-15.6z"/>
	<path id="a4f25674-ecb7-42aa-ae9a-d508200b11eb-2944" class="s3" d="m533.4 297.3l-16 6.2-6.9 23.8c-14.8-3.3-29-4.7-42.5-3.5l-2.7-30.2q-1.8 0-3.6 0.2-1.8 0.2-3.6 0.6-1.8 0.4-3.5 0.9-1.7 0.5-3.4 1.2c0 0 0.8-25.2 10.5-26 2.8-0.2 5.3-0.3 7.2-0.4 0 0 10.2-1.8 10.1-1.2l3.2-1.1 7 4.7 12.4-6.4 4.1 3.2c0.1-0.5 10.9 1.7 10.8 2.1 3.4 0.7 7.1 2.1 9.2 4.6 5 6 7.7 21.3 7.7 21.3z"/>
	<path id="b6d7fb25-d94e-4ba0-9382-3f72a4c565e4-2945" class="s1" d="m186.8 279.1l-13.2 5.2-5.7 55.6c-12.2-2.7-23.9-3.9-35-2.9l-2.2-60.9q-1.5 0-3 0.2-1.5 0.2-2.9 0.5-1.5 0.3-2.9 0.7-1.5 0.5-2.8 1c0 0 0.6-20.8 8.6-21.4 2.3-0.2 4.4-0.3 6-0.3 0 0 8.4-1.5 8.2-1l2.7-1 5.8 4 10.2-5.4 3.3 2.7c0.2-0.4 9 1.4 8.9 1.7 2.9 0.6 5.9 1.7 7.6 3.8 4.2 5 6.4 17.5 6.4 17.5z"/>
	<path id="abb48a01-b3b6-4bc9-9e6f-5cc93133d8eb-2946" class="s4" d="m749.5 247.4c0-7.6 3-14.9 8.3-20.2 5.3-5.3 12.6-8.3 20.2-8.3 7.5 0 14.8 3 20.1 8.3 5.3 5.3 8.4 12.6 8.4 20.2v30.5h-57z"/>
	<path id="f1b40e10-dbea-4491-93e9-bf21ee1afe95-2947" class="s5" d="m724 617.2h-12.3l-5.8-47.3h18.1z"/>
	<path id="f19e2682-d3fb-40a9-8809-be7b68a78ac9-2948" class="s4" d="m727.1 629.1h-39.5v-0.5c0-2 0.4-4 1.2-5.9 0.7-1.9 1.9-3.6 3.3-5 1.4-1.4 3.1-2.6 5-3.3 1.9-0.8 3.9-1.2 5.9-1.2h24.1z"/>
	<path id="b3618d44-3857-42e4-aed2-10e127155f21-2949" class="s5" d="m870.6 600.8l-10.7 6.1-28.3-38.4 15.7-8.8z"/>
	<path id="a172411a-a77d-4e4f-ac70-c8342021cfb1-2950" class="s4" d="m879.1 609.6l-34.4 19.5-0.2-0.5c-1-1.7-1.7-3.7-1.9-5.7-0.3-2-0.1-4 0.4-5.9 0.6-2 1.5-3.8 2.7-5.4 1.3-1.6 2.8-2.9 4.6-3.9l21-11.9z"/>
	<path id="bd1532c7-07e2-44c0-82ff-fc8e0d37942d-2951" class="s4" d="m792.2 404.5l1 4.8c0 0 2.8 2.8 1.4 4.2-1.4 1.4-1 8.1-1 8.1 0.8 12 16.6 79.9 19.4 93.1 0 0 21.8 14.2 38.8 42.1 17 28 17.5 35 17.5 35l-18.9 8.1-47.3-57.2c0 0-13.3-8.1-18-15.2-4.7-7.1-34.1-80.4-34.1-80.4l-16.5 76.6c0 0 0.9 27.9-3.3 45.9q-1 4.3-1.8 8.6-0.8 4.3-1.4 8.6-0.6 4.3-1 8.6-0.4 4.4-0.6 8.7l-22.2-2.3c0 0 1.4-67.2 3.8-74.3 0 0-9.9-81.8 9.9-114.5l16-42.6 15.7-6.1z"/>
	<path id="e2a54528-859f-4f0e-9aca-6130773a8d3b-2952" class="s6" d="m778.2 226.3c-29.8 0.5-29.8 44.9 0 45.4 29.9-0.5 29.9-44.9 0-45.4z"/>
	<path id="aeace49c-5333-476f-965d-52da8fac2318-2953" class="s4" d="m755.3 243.9c0-6.1 2.4-12 6.7-16.3 4.4-4.3 10.2-6.7 16.3-6.7 6.1 0 12 2.4 16.3 6.7 4.3 4.3 6.8 10.2 6.8 16.3v3.9h-6.8l-6.7-7.2 0.9 7.2h-27.8l0.7-3.4-1.4 3.4h-5z"/>
	<path id="aa5a3aa9-e50b-4b43-b42d-0c1415925835-2954" class="s3" d="m747.5 285l56.4 0.4-11.9 121c0 0-66-3.5-66-23.7l6.1-17.9z"/>
	<path id="aca4d347-909c-4b66-b72e-6bb1477aee43-2955" class="s5" d="m806.3 418c-0.9-1-1.5-2.3-1.8-3.6-0.4-1.3-0.4-2.7-0.2-4.1 0.3-1.3 0.9-2.6 1.7-3.7 0.8-1.1 1.8-2 3-2.7l-2.5-21.3 12.6-4.6 3.1 30.1c0.9 2.1 1.1 4.5 0.5 6.7-0.7 2.2-2.1 4.1-4.1 5.3-1.9 1.2-4.3 1.7-6.5 1.3-2.3-0.4-4.4-1.6-5.8-3.4z"/>
	<path id="eab38d24-ad2d-4cbe-aaaa-db975580c866-2956" class="s3" d="m796.5 295.9l7.4-10.4c0 0 5.1-1.1 11.1 5.9 6 7 9.5 94.5 9.5 94.5l-22 5-13-62z"/>
	<path id="Layer" class="s1" d="m672.1 390.7l87.8-13.3 58.1 20.5-2.3 80.8-91.6 16.4-50.3-26.6-1.7-77.8z"/>
	<path id="Layer" fill-rule="evenodd" class="s7" d="m724 495.9l-51-26.9-1.7-79 88.7-13.4 0.2 0.1 58.6 20.6-2.3 82.1zm-49.4-27.9l49.7 26.2 90.7-16.2 2.2-79.6-57.3-20.2-86.9 13.2z"/>
	<path id="Layer" class="s7" d="m723 411.8l-0.2-0.1-51-20.2 0.6-1.5 50.8 20.2 94.7-13.1 0.2 1.6-95.1 13.1z"/>
	<path id="Layer" class="s7" d="m722.3 411h1.6l1 84.1h-1.6z"/>
	<path id="Layer" class="s7" d="m716.5 407.8l-18.3-7.5 88.4-14 18.3 7.4-88.4 14.1z"/>
	<path id="Layer" class="s7" d="m671.8 414.8l0.7-1.5 21.2 9.2-0.6 1.4z"/>
	<path id="Layer" class="s2" d="m681.5 441.3l0.6-1.5 21.3 9.2-0.6 1.5z"/>
	<path id="Layer" class="s1" d="m392.1 498.7l87.8-13.3 58.1 20.5-2.3 80.8-91.6 16.4-50.3-26.6-1.7-77.8z"/>
	<path id="Layer" fill-rule="evenodd" class="s7" d="m444 603.9l-51-26.9-1.7-79 88.7-13.4 0.2 0.1 58.6 20.6-2.3 82.1zm-49.4-27.9l49.7 26.2 90.7-16.2 2.2-79.6-57.3-20.2-86.9 13.2z"/>
	<path id="Layer" class="s7" d="m443 519.8l-0.2-0.1-51-20.2 0.6-1.5 50.8 20.2 94.7-13.1 0.2 1.6-95.1 13.1z"/>
	<path id="Layer" class="s7" d="m442.3 519h1.6l1 84.1h-1.6z"/>
	<path id="Layer" class="s7" d="m432.1 514l-13.9-5.7 88.4-14 13.9 5.6-88.4 14.1z"/>
	<path id="Layer" class="s7" d="m391.8 522.8l0.7-1.5 21.2 9.2-0.6 1.4z"/>
	<path id="Layer" class="s2" d="m401.5 549.3l0.6-1.5 21.3 9.2-0.6 1.5z"/>
	<path id="Layer" class="s2" d="m479.6 509.4l101.8-15.4 67.5 23.7-2.6 93.8-106.4 19-58.4-30.9-1.9-90.2z"/>
	<path id="Layer" fill-rule="evenodd" class="s3" d="m539.7 631.5l-59.2-31.3-1.9-91.6 102.9-15.6 0.2 0.1 68.1 24-2.6 95.2zm-57.4-32.4l57.7 30.4 105.3-18.8 2.6-92.3-66.6-23.5-100.8 15.3z"/>
	<path id="Layer" class="s3" d="m538.6 533.9l-0.3-0.1-59.1-23.5 0.7-1.8 58.9 23.4 110-15.1 0.2 1.8-110.4 15.3z"/>
	<path id="Layer" class="s3" d="m537.8 532.9h1.8l1.2 97.6h-1.9z"/>
	<path id="Layer" class="s3" d="m526.9 527.1l-17.1-6.5 102.6-16.4 17.1 6.6-102.6 16.3z"/>
	<path id="Layer" class="s3" d="m479.2 537.3l0.7-1.7 24.8 10.6-0.8 1.7z"/>
	<path id="Layer" class="s1" d="m490.4 568.1l0.7-1.7 24.7 10.6-0.7 1.7z"/>
	<path id="af1e2e82-f248-43bd-a869-489ddf745161-2957" class="s5" d="m694 404.1c-2.2-0.6-4.1-2-5.4-4-1.2-1.9-1.7-4.3-1.3-6.5 0.4-2.3 1.6-4.4 3.4-5.8l15.7-25.9 9.4 9.7-11.5 18.1c0.8 1.1 1.4 2.4 1.6 3.7 0.3 1.4 0.2 2.8-0.2 4.1-0.3 1.3-0.9 2.6-1.8 3.6-0.9 1.1-2 1.9-3.2 2.5-2.1 1-4.5 1.2-6.7 0.5z"/>
	<path id="ed6195a6-5e50-4e12-8380-54bfefa6b2ae-2958" class="s3" d="m742 335.3l-29.7 45.4-11.2-11.3c0 0 27.1-57.8 33.8-70.7 6.7-12.9 13.1-14.3 13.1-14.3l8.1 5.3z"/>
</svg>